<?xml version="1.0" encoding="UTF-8"?>
<svg id="Artwork" xmlns="http://www.w3.org/2000/svg" version="1.1" viewBox="0 0 78.7 40.9">
  <!-- Generator: Adobe Illustrator 30.0.0, SVG Export Plug-In . SVG Version: 2.1.1 Build 123)  -->
  <defs>
    <style>
      .st0 {
        fill: #fff;
      }
    </style>
  </defs>
  <g>
    <path class="st0" d="M38.8,6.8v6.3h-3.9v4.9h3.9v14.7c0,5.3,2.2,7.5,7.7,7.5s2.4,0,3.1-.2h.3v-4.9h-.4c-.3.1-1.2.2-1.8.2-2,0-2.9-.9-2.9-3v-14.1h5.1v-4.9h-5.1v-6.3h-6Z"/>
    <g>
      <path class="st0" d="M24.2,11.5c-3.1-.2-5.8,1.7-7.2,1.7s-3.8-1.7-6.3-1.6c-3.2,0-6.2,1.9-7.8,4.8-3.3,5.8-.9,14.4,2.4,19.1,1.6,2.3,3.5,4.9,6,4.8,2.4,0,3.3-1.6,6.2-1.6s3.7,1.6,6.3,1.5c2.6,0,4.2-2.3,5.8-4.7,1.8-2.7,2.6-5.3,2.6-5.4,0,0-5-1.9-5.1-7.7,0-4.8,3.9-7.1,4.1-7.2-2.2-3.3-5.7-3.7-6.9-3.8Z"/>
      <path class="st0" d="M22.3,8.4c1.3-1.6,2.2-3.8,2-6.1-1.9,0-4.2,1.3-5.6,2.9-1.2,1.4-2.3,3.7-2,5.9,2.1.2,4.3-1.1,5.6-2.7Z"/>
    </g>
  </g>
  <polygon class="st0" points="71.3 13.1 65 33.4 58.7 13.1 52.4 13.1 61.9 39.9 68 39.9 77.4 13.1 71.3 13.1"/>
</svg>