<svg width="138" height="38" viewBox="0 0 138 38" fill="none" xmlns="http://www.w3.org/2000/svg">
<path fill-rule="evenodd" clip-rule="evenodd" d="M54.5086 14.0602L52.9405 14.4922C51.8482 14.9236 50.8706 15.6685 50.0464 16.8017V14.7254L46.1746 14.6889V30.9912H50.2027V23.1928C50.2027 21.8586 50.3613 20.9199 50.7142 20.3299C50.9853 19.7055 51.4938 19.1952 52.1222 18.7646C52.8244 18.2924 53.5667 18.0562 54.3515 18.0562L55.6009 18.1374L55.5636 13.9805L54.5086 14.0602ZM22.9833 30.9993H27.0509V9.76H22.9833V30.9993ZM39.1753 22.7197L38.3942 23.1467L36.36 23.6562C35.4985 23.7747 34.8351 23.9706 34.4427 24.2053C33.7807 24.6366 33.4651 25.2273 33.4651 26.0491C33.4651 26.7933 33.6638 27.3007 34.0525 27.656C34.4427 27.9659 34.9133 28.1239 35.4985 28.1239C36.4382 28.1239 37.2587 27.849 38.042 27.3007C38.7836 26.7523 39.1753 25.772 39.1753 24.3639V22.7197ZM43.4412 19.037V31.0303H39.3699V29.3438C38.1175 30.4411 36.3596 30.9901 34.1317 31.0303C32.7595 30.9901 31.627 30.6005 30.805 29.8935C29.8683 29.0316 29.3999 27.8531 29.4379 26.4077C29.3999 24.3271 30.1408 22.8788 31.665 21.9774C32.5674 21.4657 33.7386 21.1155 35.1846 20.9174L38.3148 20.4107C38.9388 20.1373 39.253 19.7023 39.253 19.1562C39.2128 18.4902 39.0177 18.0186 38.5494 17.784C38.081 17.5083 37.4161 17.3497 36.5576 17.3914C35.5383 17.3497 34.8346 17.6268 34.405 18.178C34.1317 18.4902 33.895 18.961 33.819 19.6665H29.7499C29.8683 18.178 30.2212 16.9988 30.9234 16.0988C32.0179 14.6491 33.9345 13.9027 36.673 13.9436C38.4325 13.9027 39.9954 14.258 41.4034 15.0022C42.7324 15.7077 43.4412 17.077 43.4412 19.037ZM10.8586 13.8873C12.1117 13.8873 13.2457 14.239 14.3403 14.9459C15.3194 15.6127 16.1012 16.5521 16.6485 17.6487H20.9112C20.2857 15.3765 19.0728 13.494 17.2337 12.0472C15.3596 10.5565 13.2077 9.8123 10.8586 9.85105C7.92793 9.8123 5.49992 10.8307 3.46793 12.9457C1.39576 15.0234 0.380127 17.4908 0.380127 20.4305C0.380127 23.3292 1.39576 25.8799 3.46793 27.9547C5.49992 29.9908 7.92793 31.0121 10.8586 31.0121C13.2077 31.0121 15.3596 30.3051 17.2337 28.8547C19.0728 27.3655 20.2857 25.5253 20.9112 23.2524H16.6485C16.1012 24.3505 15.3194 25.2483 14.3403 25.9552C13.2457 26.6242 12.1117 26.9758 10.8586 26.9758C9.0612 26.9758 7.53702 26.3091 6.28319 25.0523C4.99576 23.7605 4.36811 22.2362 4.40684 20.4305C4.36811 18.6298 4.99576 17.0997 6.28319 15.8086C7.53702 14.5541 9.0612 13.8873 10.8586 13.8873ZM68.8999 22.4193C68.859 21.1275 68.4294 20.0667 67.6059 19.2063C66.7079 18.307 65.6529 17.8735 64.4012 17.9137C63.1898 17.8735 62.1332 18.307 61.2732 19.2063C60.4118 20.0667 59.942 21.1275 59.942 22.4193C59.942 23.6337 60.4118 24.6923 61.2732 25.5944C62.1332 26.498 63.1898 26.9242 64.4012 26.9242C65.6529 26.9242 66.7079 26.498 67.5679 25.5944C68.4294 24.6923 68.859 23.6337 68.8999 22.4193ZM70.4235 16.3467C72.0661 18.0333 72.8881 20.0672 72.8881 22.4198C72.8881 24.7709 72.0661 26.8077 70.4235 28.4541C68.7423 30.1407 66.7081 31.0004 64.4014 31.0004C62.0939 31.0004 60.097 30.1407 58.4574 28.4541C56.7724 26.8077 55.9534 24.7709 55.9534 22.4198C55.9534 20.0672 56.7724 18.0333 58.4574 16.3467C60.097 14.663 62.0939 13.8369 64.4014 13.8369C66.7081 13.8369 68.7423 14.663 70.4235 16.3467ZM75.5579 22.6437H86.5581V19H75.5579V22.6437ZM83.4142 4.62711L73.5933 14.4638L71.0133 11.8765L80.8313 2.04275L83.4142 4.62711ZM66.7016 11.0002V-2.30475e-05L63.0579 -2.28882e-05V11.0002H66.7016Z" fill="#DA291C"/>
<path d="M92.3163 18.2012H90.5803V15.4112L92.5333 15.0082L93.9593 10.6992H97.1213V14.6672H101.306V18.2012H97.1213V25.2692C97.1213 25.9099 97.2557 26.4059 97.5243 26.7572C97.793 27.1086 98.196 27.2842 98.7333 27.2842C99.436 27.2842 100.294 27.0879 101.306 26.6952V30.5392C100.831 30.7046 100.221 30.8389 99.4773 30.9422C98.754 31.0456 98.0927 31.0972 97.4933 31.0972C95.8607 31.0972 94.5897 30.6426 93.6803 29.7332C92.771 28.8032 92.3163 27.5632 92.3163 26.0132V18.2012Z" fill="white"/>
<path d="M107.343 14.6672L110.195 26.7262H110.598L113.481 14.6672H118.131L113.543 30.7252H106.971L102.352 14.6672H107.343Z" fill="white"/>
<path d="M126.301 24.4432H120.38V20.4442H126.301V14.3992H130.517V20.4442H136.438V24.4432H130.517V30.4882H126.301V24.4432Z" fill="white"/>

  <metadata>
    © 2025 Claro. Todos os direitos reservados - CNPJ: 40.432.544/0001-47
  </metadata>
</svg>
